<?xml version="1.0" encoding="UTF-8" standalone="no"?>
<!-- Created with Inkscape (http://www.inkscape.org/) -->

<svg
   width="1099.9999"
   height="1100"
   viewBox="0 0 291.04163 291.04166"
   version="1.1"
   id="svg5"
   xml:space="preserve"
   xmlns:inkscape="http://www.inkscape.org/namespaces/inkscape"
   xmlns:sodipodi="http://sodipodi.sourceforge.net/DTD/sodipodi-0.dtd"
   xmlns:xlink="http://www.w3.org/1999/xlink"
   xmlns="http://www.w3.org/2000/svg"
   xmlns:svg="http://www.w3.org/2000/svg"><sodipodi:namedview
     id="namedview7"
     pagecolor="#ffffff"
     bordercolor="#000000"
     borderopacity="0.25"
     inkscape:showpageshadow="2"
     inkscape:pageopacity="0.0"
     inkscape:pagecheckerboard="0"
     inkscape:deskcolor="#d1d1d1"
     inkscape:document-units="px"
     showgrid="false" /><defs
     id="defs2"><linearGradient
       inkscape:collect="always"
       id="linearGradient14675"><stop
         style="stop-color:#87b1f8;stop-opacity:1;"
         offset="0"
         id="stop14671" /><stop
         style="stop-color:#87b1f8;stop-opacity:0;"
         offset="1"
         id="stop14673" /></linearGradient><rect
       x="789.87689"
       y="176.21519"
       width="683.22034"
       height="860.98126"
       id="rect6622" /><linearGradient
       inkscape:collect="always"
       xlink:href="#linearGradient14675"
       id="linearGradient14677"
       x1="199.74519"
       y1="227.86938"
       x2="372.927"
       y2="122.76178"
       gradientUnits="userSpaceOnUse"
       gradientTransform="translate(-21.025689,28.460668)" /><filter
       inkscape:collect="always"
       style="color-interpolation-filters:sRGB"
       id="filter14781"
       x="-0.056003064"
       y="-0.057568256"
       width="1.1120061"
       height="1.1151365"><feGaussianBlur
         inkscape:collect="always"
         stdDeviation="5.6157849"
         id="feGaussianBlur14783" /></filter><rect
       x="789.87689"
       y="176.21519"
       width="683.22034"
       height="860.98126"
       id="rect14789" /><filter
       inkscape:collect="always"
       style="color-interpolation-filters:sRGB"
       id="filter14791"
       x="-0.083962098"
       y="-0.067032427"
       width="1.1679242"
       height="1.1340649"><feGaussianBlur
         inkscape:collect="always"
         stdDeviation="8.2003"
         id="feGaussianBlur14793" /></filter></defs><g
     inkscape:groupmode="layer"
     id="layer4"
     inkscape:label="Root"
     transform="translate(-119.95726,-11.799515)"><g
       inkscape:groupmode="layer"
       id="layer3"
       inkscape:label="Background"><circle
         style="display:inline;fill:#000000;fill-opacity:1;stroke:none;stroke-width:0.536846;stroke-dasharray:none;stroke-opacity:1"
         id="path3660"
         cx="265.47809"
         cy="157.32034"
         r="145.52083"
         inkscape:export-filename="geoperion.svg"
         inkscape:export-xdpi="43.297939"
         inkscape:export-ydpi="43.297939"
         inkscape:label="Earth BG" /><circle
         style="display:inline;fill:#6a9ef8;fill-opacity:1;stroke:none;stroke-width:0.530502;stroke-dasharray:none;stroke-opacity:1"
         id="circle15012"
         cx="265.47809"
         cy="157.45264"
         r="143.80104"
         inkscape:export-filename="geoperion.svg"
         inkscape:export-xdpi="43.297939"
         inkscape:export-ydpi="43.297939"
         inkscape:label="Earth BG" /><path
         id="circle14643"
         style="display:inline;fill:url(#linearGradient14677);fill-opacity:1;stroke:none;stroke-width:0.0206375;filter:url(#filter14781)"
         d="m 244.45216,42.341991 a 143.43915,143.43915 0 0 0 -81.38677,25.355558 143.43915,143.43915 0 0 0 -15.83727,65.325211 143.43915,143.43915 0 0 0 143.43879,143.4393 143.43915,143.43915 0 0 0 81.38727,-25.35607 143.43915,143.43915 0 0 0 15.83728,-65.32521 143.43915,143.43915 0 0 0 -143.4393,-143.438789 z"
         inkscape:label="Shine" /><path
         id="circle15343"
         style="display:inline;fill:#6a9ef8;fill-opacity:1;stroke:none;stroke-width:0.529167;stroke-dasharray:none;stroke-opacity:1"
         inkscape:label="Earth BG"
         d="m 288.4413,15.740124 c -0.347,0.150588 -0.65962,0.298933 -0.8754,0.433049 -2.06607,1.284185 -1.978,1.264948 -10.19059,2.167309 -5.66398,0.622335 -6.57607,0.839763 -7.64914,1.822628 -0.67015,0.613787 -1.21853,1.272582 -1.21853,1.463476 0,0.810896 2.33136,2.185787 4.12843,2.434994 1.06849,0.148175 2.80822,0.674669 3.86643,1.169954 2.41405,1.129892 3.21521,1.127088 5.67045,-0.02015 1.08377,-0.506404 2.27003,-0.815418 2.63602,-0.686779 0.36601,0.128638 1.28347,-0.332045 2.03863,-1.02371 1.091,-0.99926 2.36619,-1.455834 6.20841,-2.223637 2.54657,-0.508893 7.23229,-1.470627 10.67635,-2.188497 a 143.43915,143.43915 0 0 0 -7.5706,-1.875855 143.43915,143.43915 0 0 0 -0.0532,-0.01188 143.43915,143.43915 0 0 0 -7.66723,-1.460893 z m 21.39508,5.180562 c -1.0767,0.511846 -2.8871,0.705892 -5.7919,0.669727 -2.44881,-0.03049 -4.60373,0.0826 -4.78833,0.251664 -0.75118,0.688016 1.28143,1.536698 4.92011,2.054138 3.65367,0.519574 4.01674,0.678185 6.90139,3.012219 2.58905,2.094883 3.18683,2.869778 3.99665,5.180563 1.73732,4.95737 1.77985,5.853064 0.33797,7.173722 -1.08424,0.993074 -1.6385,1.151402 -3.6804,1.052132 -1.32213,-0.06427 -2.55165,0.01866 -2.73213,0.183968 -0.18049,0.165306 0.0187,1.554479 0.44286,3.08715 0.42417,1.532673 0.90578,3.362772 1.07022,4.066935 0.5275,2.258789 3.42851,5.87835 5.66787,7.071403 1.16021,0.618107 2.26301,1.143417 2.4505,1.167887 0.72409,0.09452 3.97096,-3.428805 5.79861,-6.292639 2.0935,-3.280401 2.90663,-3.804253 7.70237,-4.960937 4.69598,-1.132617 5.82859,-1.61855 5.82859,-2.502173 0,-0.49237 0.59714,-0.985638 1.5782,-1.303279 1.18992,-0.385271 4.27906,-1.01201 7.39489,-1.564763 a 143.43915,143.43915 0 0 0 -37.0954,-18.346683 143.43915,143.43915 0 0 0 -0.002,-0.001 z m -95.73989,8.32559 c -3.6754,0 -4.68841,0.317685 -7.08794,2.225704 l -1.51619,1.206128 2.5306,0.730705 c 1.39186,0.401849 3.11242,0.730704 3.82354,0.730704 1.18154,0 1.29294,0.150873 1.29294,1.753899 0,1.291435 0.27556,1.931286 1.04541,2.425174 1.08703,0.697361 5.53642,0.718283 8.3442,0.03927 0.80372,-0.194363 2.1263,-0.105856 3.17913,0.21239 1.5758,0.476331 2.28212,0.411234 5.61206,-0.516248 l 3.80959,-1.060917 0.14676,-2.761588 c 0.0846,-1.586709 -0.0538,-2.761072 -0.32556,-2.761072 -0.26008,0 -1.28527,0.318531 -2.27842,0.707967 -0.99313,0.389438 -2.68009,0.762557 -3.7486,0.829407 -1.06852,0.06685 -2.6145,0.266587 -3.43545,0.4439 -1.30526,0.281919 -1.89724,0.03841 -4.71754,-1.941483 -3.18005,-2.232423 -3.27348,-2.263945 -6.67453,-2.263945 z m 61.57867,0.762228 -4.54029,0.86868 c -4.40366,0.842272 -4.56624,0.843427 -5.43068,0.05168 -0.86445,-0.791753 -0.94867,-0.770663 -2.80448,0.698665 l -1.91306,1.514636 0.83819,1.610755 c 0.93807,1.801758 2.53441,2.180237 3.04012,0.720886 0.39258,-1.132896 1.24129,-1.119947 6.8492,0.102836 l 4.55062,0.992188 1.22112,2.793627 c 1.91282,4.376357 1.76123,4.738534 -2.8391,6.7877 -1.37318,0.611663 -2.49649,1.412738 -2.49649,1.779736 0,0.381246 1.66558,1.471007 3.88555,2.54248 2.95101,1.424311 4.44024,1.878734 6.19238,1.890324 2.42919,0.01607 3.03257,-0.65819 1.5782,-1.763716 -0.88308,-0.67126 -0.96337,-2.518409 -0.12144,-2.793628 0.33391,-0.109153 1.23356,0.0912 1.99885,0.445451 2.0468,0.947443 2.37315,0.184109 1.04438,-2.442745 -1.11343,-2.201139 -1.12749,-2.32699 -0.25683,-2.32699 0.50621,0 1.05549,0.200268 1.22059,0.444934 0.55391,0.820884 1.6786,0.455506 1.97973,-0.643372 0.44147,-1.611039 -0.56413,-3.89681 -2.45205,-5.572786 -1.41121,-1.252791 -1.58754,-1.61942 -1.1436,-2.379183 0.67402,-1.153508 -0.28678,-1.854832 -3.10834,-2.268078 -1.11813,-0.163764 -3.21634,-0.917899 -4.66276,-1.675867 z m -24.65224,4.031795 -1.81798,0.312642 c -2.38695,0.410141 -2.38094,0.405288 -3.7636,2.8205 -1.31418,2.2956 -2.7881,3.927321 -4.59661,5.087544 -0.99869,0.640694 -1.34424,0.670381 -2.1823,0.187069 -1.94051,-1.119088 -4.9721,-1.612398 -10.23658,-1.666048 -2.93146,-0.02988 -5.56193,-0.03568 -5.84513,-0.0124 -0.28319,0.02328 -1.21601,0.670509 -2.07325,1.438155 -1.4555,1.303368 -1.61644,1.34806 -2.43293,0.671277 -0.48089,-0.398605 -2.06131,-0.929968 -3.51193,-1.180807 -3.88558,-0.671882 -4.3372,-0.859984 -4.3372,-1.805574 0,-0.791595 -0.39471,-0.862653 -4.97851,-0.894003 -5.2786,-0.03609 -5.45164,-0.05274 -9.20977,-0.878499 -2.40823,-0.529145 -6.44543,-0.39657 -10.66654,0.24908 a 143.43915,143.43915 0 0 0 -4.75319,3.431315 143.43915,143.43915 0 0 0 -3.15278,2.32699 143.43915,143.43915 0 0 0 -4.69687,3.867981 143.43915,143.43915 0 0 0 -2.76211,2.377116 143.43915,143.43915 0 0 0 -4.59662,4.305163 143.43915,143.43915 0 0 0 -2.32182,2.321822 143.43915,143.43915 0 0 0 -4.55528,4.846733 143.43915,143.43915 0 0 0 -1.66191,1.930631 143.43915,143.43915 0 0 0 -4.70411,5.691642 c -0.0849,2.948785 0.0534,4.811631 0.49403,6.708635 0.97839,4.212162 0.9419,4.607914 -0.45217,4.928381 -0.82644,0.189985 -1.36854,0.772514 -1.76733,1.899109 -0.66318,1.873509 -1.73459,3.397085 -4.58215,6.517948 -1.11619,1.223327 -2.4016,2.887153 -2.85668,3.696932 -0.45508,0.809776 -1.6124,2.267839 -2.57193,3.240629 l -1.7446,1.768884 0.29146,4.543904 c 0.40945,6.38354 1.2622,8.38117 4.52065,10.58592 2.57992,1.74566 2.61738,1.80392 2.62878,4.09226 0.006,1.27675 0.21082,3.02198 0.45424,3.87831 0.2434,0.85633 0.74667,2.65771 1.11827,4.00338 0.72902,2.63978 1.60339,4.35839 3.55948,6.9944 1.03,1.38807 1.20017,1.48654 0.97772,0.56792 -0.14812,-0.61165 -0.57394,-2.52818 -0.94672,-4.25917 -0.37279,-1.73099 -0.97285,-3.63277 -1.33325,-4.2261 -0.89043,-1.46592 -1.88184,-4.03654 -1.89084,-4.90202 -0.004,-0.39025 0.41583,-1.06092 0.93328,-1.48983 0.9105,-0.7547 0.98827,-0.70993 2.41897,1.37717 0.81311,1.18615 1.48277,2.71207 1.48777,3.39101 0.01,1.33439 2.96665,7.10287 4.38319,8.55193 0.47835,0.48933 1.90621,2.59138 3.17345,4.67104 2.07863,3.41121 2.29802,4.04232 2.24172,6.45025 l -0.062,2.66909 2.96675,1.77973 c 8.50773,5.10235 12.53684,6.46181 16.72559,5.64359 2.25696,-0.44089 2.36382,-0.41179 5.02088,1.39061 3.89197,2.64009 5.77909,3.41969 8.28167,3.41994 2.04555,2e-4 2.35638,0.16208 4.31808,2.24845 1.47978,1.5738 2.19199,2.78059 2.37401,4.02352 0.20553,1.40342 0.68922,2.09801 2.30736,3.31246 1.12599,0.84508 2.48661,1.53634 3.0241,1.53634 0.53751,0 1.49873,0.37041 2.13579,0.82321 0.63691,0.45268 1.48537,0.93725 1.88619,1.07693 h 5.1e-4 c 2.27454,0.7921 1.91432,0.14598 -1.57871,-2.83031 l -3.03599,-2.58641 0.12661,-6.21254 0.1266,-6.21254 -1.40611,-0.28319 c -2.00436,-0.40323 -5.93988,-0.4301 -7.2316,-0.0496 l -1.09968,0.3235 1.02371,-2.3673 c 2.40359,-5.56022 3.36104,-8.08471 3.36104,-8.86199 0,-0.95869 -1.51149,-1.42463 -3.93154,-1.21181 -1.46183,0.12857 -1.77914,0.41668 -2.96365,2.6851 -2.23473,4.27976 -6.11461,5.31592 -11.15074,2.97863 -2.34191,-1.08687 -3.60857,-2.63117 -4.00079,-4.87773 -0.4865,-2.7866 3.61627,-14.37974 5.45238,-15.40682 0.71248,-0.39854 2.08993,-1.2046 3.06132,-1.7911 1.73244,-1.04601 7.17709,-2.78456 8.74106,-2.79156 0.43632,-0.002 0.8988,0.36653 1.02785,0.81855 0.15693,0.54963 0.85807,0.9146 2.11718,1.10175 1.75864,0.26137 1.99714,0.15858 3.61425,-1.56115 1.70485,-1.81304 1.76909,-1.83687 4.22042,-1.57096 2.3698,0.25707 5.59493,1.70976 6.74532,3.03857 0.29359,0.33911 0.67428,1.76342 0.84594,3.16518 0.30235,2.46903 1.59199,5.68131 2.281,5.68131 0.18596,0 0.94085,-0.72368 1.67742,-1.60817 1.30935,-1.5723 1.32711,-1.67425 0.80047,-4.55993 -1.25716,-6.88861 -1.25009,-6.95383 0.94257,-8.67286 1.08339,-0.84936 4.5679,-3.11203 7.74372,-5.02863 4.21597,-2.54435 5.90785,-3.82863 6.26835,-4.75888 0.27156,-0.70073 2.88926,-3.45352 5.81721,-6.11694 5.20714,-4.736625 5.37177,-4.842597 7.53391,-4.842597 2.01386,0 2.21072,-0.09525 2.21072,-1.07487 0,-1.375486 4.79036,-5.323398 7.52822,-6.204272 1.06851,-0.343782 3.14447,-1.051207 4.61367,-1.571997 2.51198,-0.890428 2.60574,-0.895435 1.572,-0.0863 -0.60461,0.473251 -1.2814,0.926187 -1.5043,1.006657 -0.2229,0.08046 -0.55074,0.996741 -0.72812,2.036568 -0.42977,2.51949 0.20708,2.462622 3.8287,-0.342098 1.58565,-1.227978 3.14172,-2.141594 3.45819,-2.030367 0.85418,0.300218 5.59402,-1.188965 5.86838,-1.843815 0.13031,-0.310969 0.11987,-0.846296 -0.0238,-1.189074 -0.22155,-0.528779 -0.57913,-0.518309 -2.35903,0.0677 -1.47148,0.48445 -2.78671,0.596052 -4.4049,0.37362 -2.87617,-0.395352 -2.98189,-1.175905 -0.37259,-2.757454 1.06412,-0.64499 1.80309,-1.368042 1.64176,-1.607137 -0.18282,-0.270926 -2.1188,-0.31524 -5.13819,-0.117305 -4.5639,0.299188 -4.8348,0.269289 -4.67051,-0.512114 0.4043,-1.922798 9.04734,-3.720703 17.88469,-3.720703 3.67022,0 4.37309,-0.13566 6.08387,-1.172538 2.77754,-1.683635 5.57692,-4.227772 5.57692,-5.068424 0,-0.984738 -2.48867,-3.0651 -2.77812,-2.322339 -0.38398,0.985334 -1.06457,0.597083 -2.04794,-1.168404 -0.52831,-0.948482 -1.28777,-1.839661 -1.68775,-1.980241 -0.60025,-0.210969 -0.67644,-0.919883 -0.4346,-4.058667 0.35009,-4.543708 0.31234,-4.561596 -4.70824,-2.245858 -1.85657,0.856328 -3.70102,1.557011 -4.09898,1.557011 -0.97968,0 -1.72909,-1.399986 -1.72909,-3.229777 0,-2.107272 -1.50814,-3.193565 -5.58519,-4.023527 l -3.39979,-0.692464 -2.67167,2.403471 c -2.03299,1.828857 -2.91773,2.343933 -3.70262,2.15594 -0.90924,-0.217776 -1.07073,-0.0077 -1.36219,1.772502 -0.18158,1.11066 -0.18221,3.219467 -0.001,4.686019 l 0.32969,2.666504 -1.39578,0.268717 c -0.76758,0.147885 -2.70366,0.734642 -4.30206,1.303797 l -2.90577,1.034562 -0.88263,2.745052 c -0.4854,1.509641 -1.17668,2.847753 -1.53582,2.973978 -1.20903,0.424936 -4.56536,-0.69305 -4.88963,-1.628841 -0.40973,-1.182362 0.17368,-3.570752 1.11001,-4.542875 0.41385,-0.429661 0.66261,-0.843627 0.55294,-0.920357 -0.10967,-0.07672 -2.30106,-0.492064 -4.86999,-0.922941 -3.73487,-0.626447 -5.14166,-1.090044 -7.01972,-2.313037 -2.86139,-1.8633 -3.10658,-2.195781 -3.11558,-4.231783 -0.006,-1.361033 0.36884,-1.92951 2.44688,-3.709851 1.34975,-1.156364 4.02694,-2.767265 5.94951,-3.579627 3.76727,-1.591818 9.11205,-3.336747 10.22057,-3.336747 1.05371,0 1.77191,-1.051246 2.17144,-3.177583 l 0.36432,-1.937867 1.34152,1.223181 c 1.54988,1.413518 1.91515,1.482136 2.78381,0.523483 0.95095,-1.049482 4.00161,-2.356674 6.76806,-2.900082 2.72374,-0.53502 5.34438,-2.263111 5.34438,-3.524332 0,-1.213249 -1.48177,-1.265301 -3.34605,-0.117306 -0.90544,0.557559 -1.99862,1.01841 -2.42879,1.02371 -0.4302,0.0054 -1.71105,0.395652 -2.84634,0.867648 l -2.06396,0.858345 v -1.546159 c 0,-1.239984 -0.24067,-1.630305 -1.2144,-1.969388 -1.02502,-0.356948 -1.21387,-0.709149 -1.21387,-2.262395 z m 137.05674,48.838878 c -0.0481,0.02636 -0.0812,0.05378 -0.0801,0.08217 0.003,0.0862 0.18157,0.280486 0.45269,0.520381 a 143.43915,143.43915 0 0 0 -0.15813,-0.255281 143.43915,143.43915 0 0 0 -0.21446,-0.347266 z m 4.3956,7.777303 c -0.27998,0.598349 -0.85403,1.139563 -1.65003,1.503267 -1.89238,0.864664 -2.99024,0.880496 -4.70307,0.06925 -0.73157,-0.346504 -2.46048,-0.817992 -3.84214,-1.047998 -2.33014,-0.387907 -2.59212,-0.340138 -3.61787,0.659908 -0.90001,0.877449 -1.18142,1.838471 -1.51102,5.162992 -0.76949,7.761781 -0.44533,8.501861 3.92431,8.966371 1.56496,0.16637 3.15866,0.48429 3.54242,0.70642 h 5.2e-4 c 0.94214,0.54567 3.23816,0.52455 3.61476,-0.0336 0.16747,-0.24816 1.21861,-0.87149 2.33578,-1.38493 3.02856,-1.39192 4.21679,-2.5608 4.21679,-4.14806 0,-1.147815 0.44346,-2.114209 1.35341,-2.942975 a 143.43915,143.43915 0 0 0 -0.002,-0.0036 143.43915,143.43915 0 0 0 -3.66231,-7.507035 z m 7.62899,17.1912 c -2.07912,0.31106 -3.30814,0.61027 -3.86126,0.93844 -0.8524,0.50573 -2.4442,0.73665 -5.34231,0.77515 -2.27059,0.0302 -4.76388,0.21736 -5.54023,0.41599 -1.10824,0.28355 -1.55065,0.18665 -2.05982,-0.45113 -0.60083,-0.75257 -0.84382,-0.61433 -3.30368,1.87534 -1.46038,1.47805 -3.26547,2.92392 -4.01112,3.21324 -1.55949,0.60507 -3.32642,3.65525 -3.13004,5.40328 0.10122,0.90097 -0.47385,1.61469 -2.78278,3.45406 -5.94369,4.73497 -9.08154,8.22946 -10.6593,11.87007 -0.53017,1.22333 -1.27673,2.76734 -1.65881,3.43132 -0.54048,0.93926 -0.59434,1.77849 -0.24236,3.78116 0.68394,3.89146 0.4238,6.72801 -0.89452,9.74618 -0.95589,2.18843 -1.09447,2.96759 -0.69712,3.92482 0.27267,0.65688 0.49558,1.93244 0.49558,2.83446 0,1.43648 0.28346,1.83319 2.28151,3.19618 1.63184,1.11319 2.83372,2.50555 4.22249,4.89221 2.27272,3.90581 7.01691,8.50455 10.0924,9.78287 2.77185,1.15236 6.44934,1.15129 8.79895,-0.002 1.08322,-0.53174 2.27433,-0.79241 2.9316,-0.64131 0.99217,0.22807 7.35197,-1.10124 8.57157,-1.79162 1.23755,-0.70051 6.07704,-1.06411 8.31371,-0.62477 1.86385,0.36613 2.682,0.83226 3.86953,2.20555 0.82648,0.95577 1.31631,1.39276 1.93631,1.56063 a 143.43915,143.43915 0 0 0 1.10123,-10.12238 143.43915,143.43915 0 0 0 0.38137,-10.19524 143.43915,143.43915 0 0 0 -0.34882,-9.84126 143.43915,143.43915 0 0 0 -0.0274,-0.42891 143.43915,143.43915 0 0 0 -1.0263,-9.65678 143.43915,143.43915 0 0 0 -0.0605,-0.42633 143.43915,143.43915 0 0 0 -1.72703,-9.69346 143.43915,143.43915 0 0 0 -0.0196,-0.0868 143.43915,143.43915 0 0 0 -5.60328,-19.33887 z m -169.26822,52.62831 c -0.14385,0 -0.57071,0.6772 -0.94826,1.50482 -0.45584,0.99926 -1.12376,1.60523 -1.98851,1.80402 -0.71623,0.16464 -2.71093,1.63514 -4.4328,3.2675 -3.02899,2.87154 -3.1208,3.0254 -2.8205,4.74545 0.17072,0.9778 0.6719,2.1435 1.11363,2.59054 0.75065,0.75972 0.72565,0.94945 -0.38138,2.90318 -1.76644,3.11754 -7.26785,11.29897 -8.30492,12.35067 -1.15961,1.176 -1.14311,2.02073 0.0662,3.42873 1.28993,1.50199 1.22478,2.37535 -0.24288,3.25613 -1.79782,1.07894 -1.6369,3.12757 0.41858,5.32836 2.17095,2.32439 5.35108,6.86647 6.10144,8.71419 2.0949,5.15868 3.24207,6.78235 6.85436,9.7007 5.42613,4.38381 8.91498,6.68488 10.89287,7.18509 1.12397,0.28424 1.91733,0.8175 2.1885,1.47072 0.23393,0.56356 0.798,1.15553 1.25367,1.31568 0.68994,0.24249 0.76478,0.60639 0.447,2.17402 -0.96714,4.77107 -0.45528,16.21051 1.75648,39.24929 0.43311,4.51148 0.68179,5.51036 1.60352,6.45025 1.55583,1.58652 2.48557,3.07448 3.19774,5.11597 0.34139,0.97865 0.9407,2.11531 1.3317,2.52594 0.81531,0.85626 0.49475,2.23676 -0.89917,3.8716 -0.89665,1.05164 -0.8888,1.08427 1.10691,4.44831 1.7659,2.97666 3.17299,4.93027 4.65863,6.37428 a 143.43915,143.43915 0 0 0 0.002,0 143.43915,143.43915 0 0 0 8.51369,0.39016 143.43915,143.43915 0 0 0 0.015,5.2e-4 c 0.0427,-0.93813 0.36362,-1.87861 0.98909,-3.00912 1.04659,-1.89167 1.18104,-2.56425 0.88211,-4.41317 -0.34354,-2.1248 -0.39301,-2.17859 -1.91306,-2.06861 -1.39656,0.10104 -1.56063,-0.0109 -1.56063,-1.0697 0,-0.65066 0.51474,-1.80244 1.14412,-2.55953 0.62938,-0.75709 1.29631,-1.81715 1.48208,-2.35541 0.36301,-1.05185 -0.58304,-3.13804 -1.86552,-4.11293 -0.41832,-0.31797 -0.76068,-0.9326 -0.76068,-1.36581 0,-0.88239 1.2688,-1.52142 1.71308,-0.86299 0.15789,0.23396 1.03885,0.42529 1.95802,0.42529 h 1.67173 v -2.62154 c 0,-3.00094 0.65209,-3.56554 2.89285,-2.50424 1.2981,0.61483 1.44865,0.58384 2.71249,-0.55914 1.59467,-1.44217 4.10828,-4.52992 4.10828,-5.04672 0,-0.20167 -0.71056,-0.69572 -1.57872,-1.09761 -2.20895,-1.0226 -3.76411,-2.41589 -3.76411,-3.37292 0,-0.84022 0.71819,-1.10253 1.17306,-0.4284 0.14245,0.2111 1.27433,0.64404 2.51509,0.96222 1.99387,0.51131 2.43975,0.48787 3.84059,-0.20309 0.87173,-0.42998 1.83462,-1.28333 2.13941,-1.89601 0.30478,-0.61268 1.39584,-2.04514 2.42465,-3.18327 1.02883,-1.13812 1.8847,-2.36977 1.9017,-2.73678 0.0725,-1.56437 1.00181,-3.93374 2.25722,-5.75521 1.53757,-2.23085 2.07738,-4.81011 1.28933,-6.15879 -1.09218,-1.86914 0.56482,-2.9383 6.74326,-4.34961 6.11433,-1.39667 6.93253,-1.94465 8.72453,-5.84615 1.53446,-3.3408 1.92953,-5.08234 2.9068,-12.81059 0.24751,-1.95732 0.6718,-4.15925 0.94258,-4.89324 0.27078,-0.734 0.72108,-2.15568 1.00097,-3.1595 0.27989,-1.00381 1.00116,-2.34088 1.60249,-2.97139 3.31316,-3.47396 4.42141,-5.30166 4.6333,-7.64191 l 0.21395,-2.36368 -3.30781,-1.69396 c -1.81906,-0.93174 -3.70164,-2.05545 -4.18373,-2.497 -0.48211,-0.44156 -1.21287,-0.80254 -1.62419,-0.80254 -0.41134,0 -1.59359,-0.39523 -2.62671,-0.87798 -1.35932,-0.63516 -2.99769,-0.90103 -5.92987,-0.96273 -4.04548,-0.0852 -4.05615,-0.0889 -6.48074,-2.03967 -2.09467,-1.68534 -2.67836,-1.93305 -4.24935,-1.80506 -1.31257,0.10693 -1.8216,-0.0256 -1.8216,-0.47335 0,-0.48703 -0.60332,-0.57038 -2.79259,-0.38603 -1.53598,0.12934 -3.32898,0.38786 -3.98426,0.57413 -1.05868,0.30092 -0.9915,0.15588 0.60048,-1.30225 2.54897,-2.33464 2.70126,-3.38756 0.9307,-6.42751 -1.87455,-3.21847 -4.26322,-5.04756 -6.85437,-5.24878 -2.31178,-0.17951 -4.88637,-1.59862 -7.57008,-4.17235 -2.1067,-2.02041 -4.04136,-3.12436 -5.47563,-3.12436 -1.32751,0 -5.69481,-2.9865 -5.69681,-3.89537 -0.001,-0.68272 -0.59582,-0.78396 -4.9475,-0.84336 -2.72028,-0.0371 -5.23277,-0.23739 -5.58364,-0.44493 -0.35086,-0.20755 -1.78418,-0.89268 -3.18482,-1.52291 l -2.54661,-1.14618 -0.99116,2.48047 c -0.54523,1.36423 -1.086,2.73068 -1.20199,3.03651 -0.116,0.30584 -0.55474,0.55603 -0.97462,0.55603 -0.5771,0 -0.73754,-0.40702 -0.65784,-1.66811 0.0736,-1.16604 -0.28808,-2.23746 -1.20096,-3.55896 -0.71829,-1.03983 -1.42351,-1.89032 -1.56735,-1.89032 z" /><path
         id="circle15349"
         style="display:inline;fill:#6a9ef8;fill-opacity:1;stroke:none;stroke-width:0.529167;stroke-dasharray:none;stroke-opacity:1"
         inkscape:label="Earth BG"
         d="m 288.4413,15.740124 c -0.347,0.150588 -0.65962,0.298933 -0.8754,0.433049 -2.06607,1.284185 -1.978,1.264948 -10.19059,2.167309 -5.66398,0.622335 -6.57607,0.839763 -7.64914,1.822628 -0.67015,0.613787 -1.21853,1.272582 -1.21853,1.463476 0,0.810896 2.33136,2.185787 4.12843,2.434994 1.06849,0.148175 2.80822,0.674669 3.86643,1.169954 2.41405,1.129892 3.21521,1.127088 5.67045,-0.02015 1.08377,-0.506404 2.27003,-0.815418 2.63602,-0.686779 0.36601,0.128638 1.28347,-0.332045 2.03863,-1.02371 1.091,-0.99926 2.36619,-1.455834 6.20841,-2.223637 2.54657,-0.508893 7.23229,-1.470627 10.67635,-2.188497 a 143.43915,143.43915 0 0 0 -7.5706,-1.875855 143.43915,143.43915 0 0 0 -0.0532,-0.01188 143.43915,143.43915 0 0 0 -7.66723,-1.460893 z m 21.39508,5.180562 c -1.0767,0.511846 -2.8871,0.705892 -5.7919,0.669727 -2.44881,-0.03049 -4.60373,0.0826 -4.78833,0.251664 -0.75118,0.688016 1.28143,1.536698 4.92011,2.054138 3.65367,0.519574 4.01674,0.678185 6.90139,3.012219 2.58905,2.094883 3.18683,2.869778 3.99665,5.180563 1.73732,4.95737 1.77985,5.853064 0.33797,7.173722 -1.08424,0.993074 -1.6385,1.151402 -3.6804,1.052132 -1.32213,-0.06427 -2.55165,0.01866 -2.73213,0.183968 -0.18049,0.165306 0.0187,1.554479 0.44286,3.08715 0.42417,1.532673 0.90578,3.362772 1.07022,4.066935 0.5275,2.258789 3.42851,5.87835 5.66787,7.071403 1.16021,0.618107 2.26301,1.143417 2.4505,1.167887 0.72409,0.09452 3.97096,-3.428805 5.79861,-6.292639 2.0935,-3.280401 2.90663,-3.804253 7.70237,-4.960937 4.69598,-1.132617 5.82859,-1.61855 5.82859,-2.502173 0,-0.49237 0.59714,-0.985638 1.5782,-1.303279 1.18992,-0.385271 4.27906,-1.01201 7.39489,-1.564763 a 143.43915,143.43915 0 0 0 -37.0954,-18.346683 143.43915,143.43915 0 0 0 -0.002,-0.001 z m -95.73989,8.32559 c -3.6754,0 -4.68841,0.317685 -7.08794,2.225704 l -1.51619,1.206128 2.5306,0.730705 c 1.39186,0.401849 3.11242,0.730704 3.82354,0.730704 1.18154,0 1.29294,0.150873 1.29294,1.753899 0,1.291435 0.27556,1.931286 1.04541,2.425174 1.08703,0.697361 5.53642,0.718283 8.3442,0.03927 0.80372,-0.194363 2.1263,-0.105856 3.17913,0.21239 1.5758,0.476331 2.28212,0.411234 5.61206,-0.516248 l 3.80959,-1.060917 0.14676,-2.761588 c 0.0846,-1.586709 -0.0538,-2.761072 -0.32556,-2.761072 -0.26008,0 -1.28527,0.318531 -2.27842,0.707967 -0.99313,0.389438 -2.68009,0.762557 -3.7486,0.829407 -1.06852,0.06685 -2.6145,0.266587 -3.43545,0.4439 -1.30526,0.281919 -1.89724,0.03841 -4.71754,-1.941483 -3.18005,-2.232423 -3.27348,-2.263945 -6.67453,-2.263945 z m 61.57867,0.762228 -4.54029,0.86868 c -4.40366,0.842272 -4.56624,0.843427 -5.43068,0.05168 -0.86445,-0.791753 -0.94867,-0.770663 -2.80448,0.698665 l -1.91306,1.514636 0.83819,1.610755 c 0.93807,1.801758 2.53441,2.180237 3.04012,0.720886 0.39258,-1.132896 1.24129,-1.119947 6.8492,0.102836 l 4.55062,0.992188 1.22112,2.793627 c 1.91282,4.376357 1.76123,4.738534 -2.8391,6.7877 -1.37318,0.611663 -2.49649,1.412738 -2.49649,1.779736 0,0.381246 1.66558,1.471007 3.88555,2.54248 2.95101,1.424311 4.44024,1.878734 6.19238,1.890324 2.42919,0.01607 3.03257,-0.65819 1.5782,-1.763716 -0.88308,-0.67126 -0.96337,-2.518409 -0.12144,-2.793628 0.33391,-0.109153 1.23356,0.0912 1.99885,0.445451 2.0468,0.947443 2.37315,0.184109 1.04438,-2.442745 -1.11343,-2.201139 -1.12749,-2.32699 -0.25683,-2.32699 0.50621,0 1.05549,0.200268 1.22059,0.444934 0.55391,0.820884 1.6786,0.455506 1.97973,-0.643372 0.44147,-1.611039 -0.56413,-3.89681 -2.45205,-5.572786 -1.41121,-1.252791 -1.58754,-1.61942 -1.1436,-2.379183 0.67402,-1.153508 -0.28678,-1.854832 -3.10834,-2.268078 -1.11813,-0.163764 -3.21634,-0.917899 -4.66276,-1.675867 z m -24.65224,4.031795 -1.81798,0.312642 c -2.38695,0.410141 -2.38094,0.405288 -3.7636,2.8205 -1.31418,2.2956 -2.7881,3.927321 -4.59661,5.087544 -0.99869,0.640694 -1.34424,0.670381 -2.1823,0.187069 -1.94051,-1.119088 -4.9721,-1.612398 -10.23658,-1.666048 -2.93146,-0.02988 -5.56193,-0.03568 -5.84513,-0.0124 -0.28319,0.02328 -1.21601,0.670509 -2.07325,1.438155 -1.4555,1.303368 -1.61644,1.34806 -2.43293,0.671277 -0.48089,-0.398605 -2.06131,-0.929968 -3.51193,-1.180807 -3.88558,-0.671882 -4.3372,-0.859984 -4.3372,-1.805574 0,-0.791595 -0.39471,-0.862653 -4.97851,-0.894003 -5.2786,-0.03609 -5.45164,-0.05274 -9.20977,-0.878499 -2.40823,-0.529145 -6.44543,-0.39657 -10.66654,0.24908 a 143.43915,143.43915 0 0 0 -4.75319,3.431315 143.43915,143.43915 0 0 0 -3.15278,2.32699 143.43915,143.43915 0 0 0 -4.69687,3.867981 143.43915,143.43915 0 0 0 -2.76211,2.377116 143.43915,143.43915 0 0 0 -4.59662,4.305163 143.43915,143.43915 0 0 0 -2.32182,2.321822 143.43915,143.43915 0 0 0 -4.55528,4.846733 143.43915,143.43915 0 0 0 -1.66191,1.930631 143.43915,143.43915 0 0 0 -4.70411,5.691642 c -0.0849,2.948785 0.0534,4.811631 0.49403,6.708635 0.97839,4.212162 0.9419,4.607914 -0.45217,4.928381 -0.82644,0.189985 -1.36854,0.772514 -1.76733,1.899109 -0.66318,1.873509 -1.73459,3.397085 -4.58215,6.517948 -1.11619,1.223327 -2.4016,2.887153 -2.85668,3.696932 -0.45508,0.809776 -1.6124,2.267839 -2.57193,3.240629 l -1.7446,1.768884 0.29146,4.543904 c 0.40945,6.38354 1.2622,8.38117 4.52065,10.58592 2.57992,1.74566 2.61738,1.80392 2.62878,4.09226 0.006,1.27675 0.21082,3.02198 0.45424,3.87831 0.2434,0.85633 0.74667,2.65771 1.11827,4.00338 0.72902,2.63978 1.60339,4.35839 3.55948,6.9944 1.03,1.38807 1.20017,1.48654 0.97772,0.56792 -0.14812,-0.61165 -0.57394,-2.52818 -0.94672,-4.25917 -0.37279,-1.73099 -0.97285,-3.63277 -1.33325,-4.2261 -0.89043,-1.46592 -1.88184,-4.03654 -1.89084,-4.90202 -0.004,-0.39025 0.41583,-1.06092 0.93328,-1.48983 0.9105,-0.7547 0.98827,-0.70993 2.41897,1.37717 0.81311,1.18615 1.48277,2.71207 1.48777,3.39101 0.01,1.33439 2.96665,7.10287 4.38319,8.55193 0.47835,0.48933 1.90621,2.59138 3.17345,4.67104 2.07863,3.41121 2.29802,4.04232 2.24172,6.45025 l -0.062,2.66909 2.96675,1.77973 c 8.50773,5.10235 12.53684,6.46181 16.72559,5.64359 2.25696,-0.44089 2.36382,-0.41179 5.02088,1.39061 3.89197,2.64009 5.77909,3.41969 8.28167,3.41994 2.04555,2e-4 2.35638,0.16208 4.31808,2.24845 1.47978,1.5738 2.19199,2.78059 2.37401,4.02352 0.20553,1.40342 0.68922,2.09801 2.30736,3.31246 1.12599,0.84508 2.48661,1.53634 3.0241,1.53634 0.53751,0 1.49873,0.37041 2.13579,0.82321 0.63691,0.45268 1.48537,0.93725 1.88619,1.07693 h 5.1e-4 c 2.27454,0.7921 1.91432,0.14598 -1.57871,-2.83031 l -3.03599,-2.58641 0.12661,-6.21254 0.1266,-6.21254 -1.40611,-0.28319 c -2.00436,-0.40323 -5.93988,-0.4301 -7.2316,-0.0496 l -1.09968,0.3235 1.02371,-2.3673 c 2.40359,-5.56022 3.36104,-8.08471 3.36104,-8.86199 0,-0.95869 -1.51149,-1.42463 -3.93154,-1.21181 -1.46183,0.12857 -1.77914,0.41668 -2.96365,2.6851 -2.23473,4.27976 -6.11461,5.31592 -11.15074,2.97863 -2.34191,-1.08687 -3.60857,-2.63117 -4.00079,-4.87773 -0.4865,-2.7866 3.61627,-14.37974 5.45238,-15.40682 0.71248,-0.39854 2.08993,-1.2046 3.06132,-1.7911 1.73244,-1.04601 7.17709,-2.78456 8.74106,-2.79156 0.43632,-0.002 0.8988,0.36653 1.02785,0.81855 0.15693,0.54963 0.85807,0.9146 2.11718,1.10175 1.75864,0.26137 1.99714,0.15858 3.61425,-1.56115 1.70485,-1.81304 1.76909,-1.83687 4.22042,-1.57096 2.3698,0.25707 5.59493,1.70976 6.74532,3.03857 0.29359,0.33911 0.67428,1.76342 0.84594,3.16518 0.30235,2.46903 1.59199,5.68131 2.281,5.68131 0.18596,0 0.94085,-0.72368 1.67742,-1.60817 1.30935,-1.5723 1.32711,-1.67425 0.80047,-4.55993 -1.25716,-6.88861 -1.25009,-6.95383 0.94257,-8.67286 1.08339,-0.84936 4.5679,-3.11203 7.74372,-5.02863 4.21597,-2.54435 5.90785,-3.82863 6.26835,-4.75888 0.27156,-0.70073 2.88926,-3.45352 5.81721,-6.11694 5.20714,-4.736625 5.37177,-4.842597 7.53391,-4.842597 2.01386,0 2.21072,-0.09525 2.21072,-1.07487 0,-1.375486 4.79036,-5.323398 7.52822,-6.204272 1.06851,-0.343782 3.14447,-1.051207 4.61367,-1.571997 2.51198,-0.890428 2.60574,-0.895435 1.572,-0.0863 -0.60461,0.473251 -1.2814,0.926187 -1.5043,1.006657 -0.2229,0.08046 -0.55074,0.996741 -0.72812,2.036568 -0.42977,2.51949 0.20708,2.462622 3.8287,-0.342098 1.58565,-1.227978 3.14172,-2.141594 3.45819,-2.030367 0.85418,0.300218 5.59402,-1.188965 5.86838,-1.843815 0.13031,-0.310969 0.11987,-0.846296 -0.0238,-1.189074 -0.22155,-0.528779 -0.57913,-0.518309 -2.35903,0.0677 -1.47148,0.48445 -2.78671,0.596052 -4.4049,0.37362 -2.87617,-0.395352 -2.98189,-1.175905 -0.37259,-2.757454 1.06412,-0.64499 1.80309,-1.368042 1.64176,-1.607137 -0.18282,-0.270926 -2.1188,-0.31524 -5.13819,-0.117305 -4.5639,0.299188 -4.8348,0.269289 -4.67051,-0.512114 0.4043,-1.922798 9.04734,-3.720703 17.88469,-3.720703 3.67022,0 4.37309,-0.13566 6.08387,-1.172538 2.77754,-1.683635 5.57692,-4.227772 5.57692,-5.068424 0,-0.984738 -2.48867,-3.0651 -2.77812,-2.322339 -0.38398,0.985334 -1.06457,0.597083 -2.04794,-1.168404 -0.52831,-0.948482 -1.28777,-1.839661 -1.68775,-1.980241 -0.60025,-0.210969 -0.67644,-0.919883 -0.4346,-4.058667 0.35009,-4.543708 0.31234,-4.561596 -4.70824,-2.245858 -1.85657,0.856328 -3.70102,1.557011 -4.09898,1.557011 -0.97968,0 -1.72909,-1.399986 -1.72909,-3.229777 0,-2.107272 -1.50814,-3.193565 -5.58519,-4.023527 l -3.39979,-0.692464 -2.67167,2.403471 c -2.03299,1.828857 -2.91773,2.343933 -3.70262,2.15594 -0.90924,-0.217776 -1.07073,-0.0077 -1.36219,1.772502 -0.18158,1.11066 -0.18221,3.219467 -0.001,4.686019 l 0.32969,2.666504 -1.39578,0.268717 c -0.76758,0.147885 -2.70366,0.734642 -4.30206,1.303797 l -2.90577,1.034562 -0.88263,2.745052 c -0.4854,1.509641 -1.17668,2.847753 -1.53582,2.973978 -1.20903,0.424936 -4.56536,-0.69305 -4.88963,-1.628841 -0.40973,-1.182362 0.17368,-3.570752 1.11001,-4.542875 0.41385,-0.429661 0.66261,-0.843627 0.55294,-0.920357 -0.10967,-0.07672 -2.30106,-0.492064 -4.86999,-0.922941 -3.73487,-0.626447 -5.14166,-1.090044 -7.01972,-2.313037 -2.86139,-1.8633 -3.10658,-2.195781 -3.11558,-4.231783 -0.006,-1.361033 0.36884,-1.92951 2.44688,-3.709851 1.34975,-1.156364 4.02694,-2.767265 5.94951,-3.579627 3.76727,-1.591818 9.11205,-3.336747 10.22057,-3.336747 1.05371,0 1.77191,-1.051246 2.17144,-3.177583 l 0.36432,-1.937867 1.34152,1.223181 c 1.54988,1.413518 1.91515,1.482136 2.78381,0.523483 0.95095,-1.049482 4.00161,-2.356674 6.76806,-2.900082 2.72374,-0.53502 5.34438,-2.263111 5.34438,-3.524332 0,-1.213249 -1.48177,-1.265301 -3.34605,-0.117306 -0.90544,0.557559 -1.99862,1.01841 -2.42879,1.02371 -0.4302,0.0054 -1.71105,0.395652 -2.84634,0.867648 l -2.06396,0.858345 v -1.546159 c 0,-1.239984 -0.24067,-1.630305 -1.2144,-1.969388 -1.02502,-0.356948 -1.21387,-0.709149 -1.21387,-2.262395 z m 137.05674,48.838878 c -0.0481,0.02636 -0.0812,0.05378 -0.0801,0.08217 0.003,0.0862 0.18157,0.280486 0.45269,0.520381 a 143.43915,143.43915 0 0 0 -0.15813,-0.255281 143.43915,143.43915 0 0 0 -0.21446,-0.347266 z m 4.3956,7.777303 c -0.27998,0.598349 -0.85403,1.139563 -1.65003,1.503267 -1.89238,0.864664 -2.99024,0.880496 -4.70307,0.06925 -0.73157,-0.346504 -2.46048,-0.817992 -3.84214,-1.047998 -2.33014,-0.387907 -2.59212,-0.340138 -3.61787,0.659908 -0.90001,0.877449 -1.18142,1.838471 -1.51102,5.162992 -0.76949,7.761781 -0.44533,8.501861 3.92431,8.966371 1.56496,0.16637 3.15866,0.48429 3.54242,0.70642 h 5.2e-4 c 0.94214,0.54567 3.23816,0.52455 3.61476,-0.0336 0.16747,-0.24816 1.21861,-0.87149 2.33578,-1.38493 3.02856,-1.39192 4.21679,-2.5608 4.21679,-4.14806 0,-1.147815 0.44346,-2.114209 1.35341,-2.942975 a 143.43915,143.43915 0 0 0 -0.002,-0.0036 143.43915,143.43915 0 0 0 -3.66231,-7.507035 z m 7.62899,17.1912 c -2.07912,0.31106 -3.30814,0.61027 -3.86126,0.93844 -0.8524,0.50573 -2.4442,0.73665 -5.34231,0.77515 -2.27059,0.0302 -4.76388,0.21736 -5.54023,0.41599 -1.10824,0.28355 -1.55065,0.18665 -2.05982,-0.45113 -0.60083,-0.75257 -0.84382,-0.61433 -3.30368,1.87534 -1.46038,1.47805 -3.26547,2.92392 -4.01112,3.21324 -1.55949,0.60507 -3.32642,3.65525 -3.13004,5.40328 0.10122,0.90097 -0.47385,1.61469 -2.78278,3.45406 -5.94369,4.73497 -9.08154,8.22946 -10.6593,11.87007 -0.53017,1.22333 -1.27673,2.76734 -1.65881,3.43132 -0.54048,0.93926 -0.59434,1.77849 -0.24236,3.78116 0.68394,3.89146 0.4238,6.72801 -0.89452,9.74618 -0.95589,2.18843 -1.09447,2.96759 -0.69712,3.92482 0.27267,0.65688 0.49558,1.93244 0.49558,2.83446 0,1.43648 0.28346,1.83319 2.28151,3.19618 1.63184,1.11319 2.83372,2.50555 4.22249,4.89221 2.27272,3.90581 7.01691,8.50455 10.0924,9.78287 2.77185,1.15236 6.44934,1.15129 8.79895,-0.002 1.08322,-0.53174 2.27433,-0.79241 2.9316,-0.64131 0.99217,0.22807 7.35197,-1.10124 8.57157,-1.79162 1.23755,-0.70051 6.07704,-1.06411 8.31371,-0.62477 1.86385,0.36613 2.682,0.83226 3.86953,2.20555 0.82648,0.95577 1.31631,1.39276 1.93631,1.56063 a 143.43915,143.43915 0 0 0 1.10123,-10.12238 143.43915,143.43915 0 0 0 0.38137,-10.19524 143.43915,143.43915 0 0 0 -0.34882,-9.84126 143.43915,143.43915 0 0 0 -0.0274,-0.42891 143.43915,143.43915 0 0 0 -1.0263,-9.65678 143.43915,143.43915 0 0 0 -0.0605,-0.42633 143.43915,143.43915 0 0 0 -1.72703,-9.69346 143.43915,143.43915 0 0 0 -0.0196,-0.0868 143.43915,143.43915 0 0 0 -5.60328,-19.33887 z m -169.26822,52.62831 c -0.14385,0 -0.57071,0.6772 -0.94826,1.50482 -0.45584,0.99926 -1.12376,1.60523 -1.98851,1.80402 -0.71623,0.16464 -2.71093,1.63514 -4.4328,3.2675 -3.02899,2.87154 -3.1208,3.0254 -2.8205,4.74545 0.17072,0.9778 0.6719,2.1435 1.11363,2.59054 0.75065,0.75972 0.72565,0.94945 -0.38138,2.90318 -1.76644,3.11754 -7.26785,11.29897 -8.30492,12.35067 -1.15961,1.176 -1.14311,2.02073 0.0662,3.42873 1.28993,1.50199 1.22478,2.37535 -0.24288,3.25613 -1.79782,1.07894 -1.6369,3.12757 0.41858,5.32836 2.17095,2.32439 5.35108,6.86647 6.10144,8.71419 2.0949,5.15868 3.24207,6.78235 6.85436,9.7007 5.42613,4.38381 8.91498,6.68488 10.89287,7.18509 1.12397,0.28424 1.91733,0.8175 2.1885,1.47072 0.23393,0.56356 0.798,1.15553 1.25367,1.31568 0.68994,0.24249 0.76478,0.60639 0.447,2.17402 -0.96714,4.77107 -0.45528,16.21051 1.75648,39.24929 0.43311,4.51148 0.68179,5.51036 1.60352,6.45025 1.55583,1.58652 2.48557,3.07448 3.19774,5.11597 0.34139,0.97865 0.9407,2.11531 1.3317,2.52594 0.81531,0.85626 0.49475,2.23676 -0.89917,3.8716 -0.89665,1.05164 -0.8888,1.08427 1.10691,4.44831 1.7659,2.97666 3.17299,4.93027 4.65863,6.37428 a 143.43915,143.43915 0 0 0 0.002,0 143.43915,143.43915 0 0 0 8.51369,0.39016 143.43915,143.43915 0 0 0 0.015,5.2e-4 c 0.0427,-0.93813 0.36362,-1.87861 0.98909,-3.00912 1.04659,-1.89167 1.18104,-2.56425 0.88211,-4.41317 -0.34354,-2.1248 -0.39301,-2.17859 -1.91306,-2.06861 -1.39656,0.10104 -1.56063,-0.0109 -1.56063,-1.0697 0,-0.65066 0.51474,-1.80244 1.14412,-2.55953 0.62938,-0.75709 1.29631,-1.81715 1.48208,-2.35541 0.36301,-1.05185 -0.58304,-3.13804 -1.86552,-4.11293 -0.41832,-0.31797 -0.76068,-0.9326 -0.76068,-1.36581 0,-0.88239 1.2688,-1.52142 1.71308,-0.86299 0.15789,0.23396 1.03885,0.42529 1.95802,0.42529 h 1.67173 v -2.62154 c 0,-3.00094 0.65209,-3.56554 2.89285,-2.50424 1.2981,0.61483 1.44865,0.58384 2.71249,-0.55914 1.59467,-1.44217 4.10828,-4.52992 4.10828,-5.04672 0,-0.20167 -0.71056,-0.69572 -1.57872,-1.09761 -2.20895,-1.0226 -3.76411,-2.41589 -3.76411,-3.37292 0,-0.84022 0.71819,-1.10253 1.17306,-0.4284 0.14245,0.2111 1.27433,0.64404 2.51509,0.96222 1.99387,0.51131 2.43975,0.48787 3.84059,-0.20309 0.87173,-0.42998 1.83462,-1.28333 2.13941,-1.89601 0.30478,-0.61268 1.39584,-2.04514 2.42465,-3.18327 1.02883,-1.13812 1.8847,-2.36977 1.9017,-2.73678 0.0725,-1.56437 1.00181,-3.93374 2.25722,-5.75521 1.53757,-2.23085 2.07738,-4.81011 1.28933,-6.15879 -1.09218,-1.86914 0.56482,-2.9383 6.74326,-4.34961 6.11433,-1.39667 6.93253,-1.94465 8.72453,-5.84615 1.53446,-3.3408 1.92953,-5.08234 2.9068,-12.81059 0.24751,-1.95732 0.6718,-4.15925 0.94258,-4.89324 0.27078,-0.734 0.72108,-2.15568 1.00097,-3.1595 0.27989,-1.00381 1.00116,-2.34088 1.60249,-2.97139 3.31316,-3.47396 4.42141,-5.30166 4.6333,-7.64191 l 0.21395,-2.36368 -3.30781,-1.69396 c -1.81906,-0.93174 -3.70164,-2.05545 -4.18373,-2.497 -0.48211,-0.44156 -1.21287,-0.80254 -1.62419,-0.80254 -0.41134,0 -1.59359,-0.39523 -2.62671,-0.87798 -1.35932,-0.63516 -2.99769,-0.90103 -5.92987,-0.96273 -4.04548,-0.0852 -4.05615,-0.0889 -6.48074,-2.03967 -2.09467,-1.68534 -2.67836,-1.93305 -4.24935,-1.80506 -1.31257,0.10693 -1.8216,-0.0256 -1.8216,-0.47335 0,-0.48703 -0.60332,-0.57038 -2.79259,-0.38603 -1.53598,0.12934 -3.32898,0.38786 -3.98426,0.57413 -1.05868,0.30092 -0.9915,0.15588 0.60048,-1.30225 2.54897,-2.33464 2.70126,-3.38756 0.9307,-6.42751 -1.87455,-3.21847 -4.26322,-5.04756 -6.85437,-5.24878 -2.31178,-0.17951 -4.88637,-1.59862 -7.57008,-4.17235 -2.1067,-2.02041 -4.04136,-3.12436 -5.47563,-3.12436 -1.32751,0 -5.69481,-2.9865 -5.69681,-3.89537 -0.001,-0.68272 -0.59582,-0.78396 -4.9475,-0.84336 -2.72028,-0.0371 -5.23277,-0.23739 -5.58364,-0.44493 -0.35086,-0.20755 -1.78418,-0.89268 -3.18482,-1.52291 l -2.54661,-1.14618 -0.99116,2.48047 c -0.54523,1.36423 -1.086,2.73068 -1.20199,3.03651 -0.116,0.30584 -0.55474,0.55603 -0.97462,0.55603 -0.5771,0 -0.73754,-0.40702 -0.65784,-1.66811 0.0736,-1.16604 -0.28808,-2.23746 -1.20096,-3.55896 -0.71829,-1.03983 -1.42351,-1.89032 -1.56735,-1.89032 z" /></g><g
       inkscape:label="Land"
       inkscape:groupmode="layer"
       id="layer1"
       style="display:inline"><path
         id="path5126"
         style="display:inline;fill:#1cd31c;fill-opacity:1;stroke:#ffffff;stroke-width:0.785019;stroke-dasharray:none;stroke-opacity:1"
         d="m 288.4413,15.740124 c -0.347,0.150588 -0.65962,0.298933 -0.8754,0.433049 -2.06608,1.284187 -1.97799,1.264947 -10.19059,2.167309 -5.66399,0.622335 -6.57606,0.839762 -7.64914,1.822628 -0.67015,0.613788 -1.21853,1.272581 -1.21853,1.463476 0,0.810896 2.33136,2.185787 4.12843,2.434994 1.0685,0.148175 2.80822,0.674668 3.86643,1.169954 2.41406,1.129893 3.21521,1.127093 5.67045,-0.02015 1.08377,-0.506405 2.27003,-0.815418 2.63602,-0.686779 0.36601,0.128638 1.28347,-0.332044 2.03863,-1.02371 1.091,-0.999261 2.36619,-1.455833 6.20841,-2.223637 2.54658,-0.508893 7.23229,-1.470626 10.67635,-2.188497 A 143.43915,143.43915 0 0 0 288.4413,15.740124 Z m 21.39508,5.180562 c -1.0767,0.511846 -2.8871,0.705892 -5.7919,0.669727 -2.44882,-0.03049 -4.60373,0.0826 -4.78833,0.251664 -0.75118,0.688017 1.28143,1.536697 4.92011,2.054138 3.65367,0.519574 4.01674,0.678182 6.90139,3.012219 2.58906,2.094885 3.18683,2.869776 3.99665,5.180563 1.73732,4.957375 1.77986,5.853063 0.33797,7.173722 -1.08424,0.993075 -1.6385,1.151402 -3.6804,1.052132 -1.32213,-0.06427 -2.55165,0.01866 -2.73213,0.183968 -0.18049,0.165306 0.0187,1.554477 0.44286,3.08715 0.42417,1.532674 0.90578,3.362771 1.07022,4.066935 0.5275,2.258791 3.4285,5.878349 5.66787,7.071403 1.16021,0.618108 2.26301,1.143417 2.4505,1.167887 0.72409,0.09452 3.97096,-3.428803 5.79861,-6.292639 2.0935,-3.280405 2.90662,-3.804252 7.70237,-4.960937 4.69598,-1.132618 5.82859,-1.618549 5.82859,-2.502173 0,-0.492371 0.59714,-0.985637 1.5782,-1.303279 1.18992,-0.385271 4.27905,-1.01201 7.39489,-1.564763 A 143.43915,143.43915 0 0 0 309.83638,20.920686 Z m -95.73989,8.32559 c -3.6754,0 -4.68841,0.317683 -7.08794,2.225704 l -1.51619,1.206128 2.5306,0.730705 c 1.39186,0.40185 3.11242,0.730704 3.82354,0.730704 1.18155,0 1.29294,0.150872 1.29294,1.753899 0,1.291437 0.27555,1.931285 1.04541,2.425174 1.08703,0.697361 5.53642,0.718279 8.3442,0.03927 0.80372,-0.194363 2.1263,-0.105856 3.17913,0.21239 1.5758,0.476332 2.28211,0.411235 5.61206,-0.516248 l 3.80959,-1.060917 0.14676,-2.761588 c 0.0846,-1.58671 -0.0538,-2.761072 -0.32556,-2.761072 -0.26008,0 -1.28527,0.318531 -2.27842,0.707967 -0.99314,0.389438 -2.68009,0.762557 -3.7486,0.829407 -1.06852,0.06685 -2.6145,0.266587 -3.43545,0.4439 -1.30526,0.281919 -1.89723,0.03841 -4.71754,-1.941483 -3.18005,-2.232425 -3.27347,-2.263945 -6.67453,-2.263945 z m 61.57867,0.762228 -4.54029,0.86868 c -4.40366,0.842272 -4.56624,0.843431 -5.43068,0.05168 -0.86445,-0.791754 -0.94867,-0.770665 -2.80448,0.698665 l -1.91306,1.514636 0.83819,1.610755 c 0.93807,1.80176 2.53441,2.180239 3.04012,0.720886 0.39258,-1.132897 1.24129,-1.119948 6.8492,0.102836 l 4.55062,0.992188 1.22112,2.793627 c 1.91282,4.376361 1.76124,4.738532 -2.8391,6.7877 -1.37318,0.611664 -2.49649,1.412738 -2.49649,1.779736 0,0.381246 1.66558,1.471006 3.88555,2.54248 2.95101,1.424312 4.44023,1.878734 6.19238,1.890324 2.42919,0.01607 3.03257,-0.658188 1.5782,-1.763716 -0.88308,-0.67126 -0.96337,-2.518408 -0.12144,-2.793628 0.33391,-0.109153 1.23356,0.0912 1.99885,0.445451 2.0468,0.947444 2.37315,0.184112 1.04438,-2.442745 -1.11343,-2.201141 -1.12749,-2.32699 -0.25683,-2.32699 0.50621,0 1.05549,0.200268 1.22059,0.444934 0.55391,0.820885 1.6786,0.455507 1.97973,-0.643372 0.44147,-1.611041 -0.56413,-3.896808 -2.45205,-5.572786 -1.41121,-1.252792 -1.58754,-1.619419 -1.1436,-2.379183 0.67402,-1.153509 -0.28678,-1.854831 -3.10834,-2.268078 -1.11814,-0.163764 -3.21634,-0.917898 -4.66276,-1.675867 z m -24.65224,4.031795 -1.81798,0.312642 c -2.38695,0.410141 -2.38094,0.405286 -3.7636,2.8205 -1.31419,2.295603 -2.78809,3.927319 -4.59661,5.087544 -0.99869,0.640694 -1.34424,0.670381 -2.1823,0.187069 -1.94051,-1.119089 -4.97209,-1.612398 -10.23658,-1.666048 -2.93146,-0.02988 -5.56193,-0.03568 -5.84513,-0.0124 -0.28319,0.02328 -1.216,0.670509 -2.07325,1.438155 -1.4555,1.30337 -1.61644,1.348061 -2.43293,0.671277 -0.48089,-0.398605 -2.06131,-0.929968 -3.51193,-1.180807 -3.88558,-0.671883 -4.3372,-0.859983 -4.3372,-1.805574 0,-0.791595 -0.3947,-0.862653 -4.97851,-0.894003 -5.2786,-0.03609 -5.45163,-0.05274 -9.20977,-0.878499 -2.40823,-0.529145 -6.44543,-0.396571 -10.66654,0.24908 A 143.43915,143.43915 0 0 0 152.1659,69.468626 c -0.0849,2.948788 0.0534,4.811629 0.49403,6.708635 0.97839,4.212167 0.9419,4.607914 -0.45217,4.928381 -0.82644,0.189985 -1.36854,0.772513 -1.76733,1.899109 -0.66318,1.873511 -1.73458,3.397082 -4.58215,6.517948 -1.11619,1.223328 -2.4016,2.887152 -2.85668,3.696932 -0.45508,0.809777 -1.6124,2.267838 -2.57193,3.240629 l -1.7446,1.768884 0.29146,4.543906 c 0.40945,6.38354 1.2622,8.38117 4.52065,10.58592 2.57992,1.74566 2.61738,1.80392 2.62878,4.09226 0.006,1.27676 0.21082,3.02198 0.45424,3.87831 0.2434,0.85633 0.74666,2.65771 1.11827,4.00338 0.72902,2.63979 1.60339,4.35839 3.55948,6.9944 1.03,1.38807 1.20017,1.48654 0.97772,0.56792 -0.14812,-0.61166 -0.57394,-2.52818 -0.94672,-4.25917 -0.37279,-1.73099 -0.97285,-3.63277 -1.33325,-4.2261 -0.89043,-1.46593 -1.88184,-4.03654 -1.89084,-4.90202 -0.004,-0.39025 0.41583,-1.06092 0.93328,-1.48983 0.9105,-0.7547 0.98827,-0.70994 2.41897,1.37717 0.81311,1.18615 1.48277,2.71207 1.48777,3.39101 0.01,1.33439 2.96665,7.10286 4.38319,8.55193 0.47835,0.48933 1.90621,2.59138 3.17345,4.67104 2.07863,3.41122 2.29802,4.04232 2.24172,6.45025 l -0.062,2.66909 2.96675,1.77973 c 8.50774,5.10235 12.53684,6.46182 16.72559,5.64359 2.25696,-0.44089 2.36382,-0.41179 5.02088,1.39061 3.89197,2.64009 5.77909,3.41969 8.28167,3.41994 2.04556,2e-4 2.35638,0.16208 4.31808,2.24845 1.47978,1.57381 2.19199,2.78059 2.37401,4.02352 0.20553,1.40342 0.68922,2.09801 2.30736,3.31246 1.12599,0.84508 2.48661,1.53634 3.0241,1.53634 0.53751,0 1.49873,0.37041 2.13579,0.82321 0.63691,0.45268 1.48537,0.93725 1.88619,1.07693 h 5.1e-4 c 2.27454,0.7921 1.91432,0.14599 -1.57871,-2.83031 l -3.03599,-2.58641 0.12661,-6.21254 0.1266,-6.21254 -1.40611,-0.28319 c -2.00436,-0.40323 -5.93988,-0.43009 -7.2316,-0.0496 l -1.09968,0.3235 1.02371,-2.3673 c 2.40359,-5.56023 3.36104,-8.08471 3.36104,-8.86199 0,-0.95869 -1.51148,-1.42463 -3.93154,-1.21181 -1.46183,0.12857 -1.77914,0.41667 -2.96365,2.6851 -2.23474,4.27976 -6.11461,5.31592 -11.15074,2.97863 -2.34192,-1.08688 -3.60857,-2.63116 -4.00079,-4.87773 -0.4865,-2.7866 3.61626,-14.37974 5.45238,-15.40682 0.71248,-0.39855 2.08993,-1.2046 3.06132,-1.7911 1.73245,-1.04601 7.17708,-2.78456 8.74106,-2.79156 0.43632,-0.002 0.8988,0.36653 1.02785,0.81855 0.15693,0.54963 0.85807,0.9146 2.11718,1.10175 1.75864,0.26138 1.99714,0.15858 3.61425,-1.56115 1.70485,-1.81304 1.76909,-1.83687 4.22042,-1.57096 2.36981,0.25707 5.59493,1.70976 6.74532,3.03857 0.29359,0.33911 0.67428,1.76342 0.84594,3.16518 0.30235,2.46903 1.59199,5.68131 2.281,5.68131 0.18596,0 0.94085,-0.72368 1.67742,-1.60817 1.30935,-1.5723 1.32711,-1.67425 0.80047,-4.55993 -1.25716,-6.88862 -1.2501,-6.95383 0.94257,-8.67286 1.08339,-0.84937 4.5679,-3.11203 7.74372,-5.02863 4.21598,-2.54435 5.90785,-3.82863 6.26835,-4.75888 0.27156,-0.70073 2.88925,-3.45352 5.81721,-6.11694 5.20714,-4.736631 5.37177,-4.842599 7.53391,-4.842599 2.01386,0 2.21072,-0.09525 2.21072,-1.07487 0,-1.375488 4.79036,-5.323397 7.52822,-6.204272 1.06851,-0.343782 3.14447,-1.051207 4.61367,-1.571997 2.51198,-0.890429 2.60574,-0.895436 1.572,-0.0863 -0.60461,0.473251 -1.2814,0.926187 -1.5043,1.006657 -0.2229,0.08046 -0.55074,0.99674 -0.72812,2.036568 -0.42977,2.519492 0.20707,2.462624 3.8287,-0.342098 1.58565,-1.22798 3.14172,-2.141595 3.45819,-2.030367 0.85418,0.300218 5.59402,-1.188965 5.86838,-1.843815 0.13031,-0.31097 0.11984,-0.846295 -0.0238,-1.189074 -0.22155,-0.528779 -0.57912,-0.518305 -2.35903,0.0677 -1.47148,0.484451 -2.78671,0.596052 -4.4049,0.37362 -2.87617,-0.395353 -2.98189,-1.175904 -0.37259,-2.757454 1.06412,-0.644991 1.80309,-1.368042 1.64176,-1.607137 -0.18282,-0.270926 -2.1188,-0.31524 -5.13819,-0.117305 -4.56391,0.299189 -4.8348,0.26929 -4.67051,-0.512114 0.4043,-1.9228 9.04733,-3.720703 17.88469,-3.720703 3.67022,0 4.37309,-0.135659 6.08387,-1.172538 2.77754,-1.683637 5.57692,-4.227771 5.57692,-5.068424 0,-0.984739 -2.48867,-3.0651 -2.77812,-2.322339 -0.38398,0.985335 -1.06457,0.597085 -2.04794,-1.168404 -0.52831,-0.948483 -1.28777,-1.839661 -1.68775,-1.980241 -0.60025,-0.210969 -0.67644,-0.91988 -0.4346,-4.058667 0.35009,-4.543712 0.31235,-4.561598 -4.70824,-2.245858 -1.85657,0.856329 -3.70102,1.557011 -4.09898,1.557011 -0.97968,0 -1.72909,-1.399984 -1.72909,-3.229777 0,-2.107274 -1.50814,-3.193564 -5.58519,-4.023527 l -3.39979,-0.692464 -2.67167,2.403471 c -2.03299,1.828859 -2.91773,2.343933 -3.70262,2.15594 -0.90924,-0.217777 -1.07073,-0.0077 -1.36219,1.772502 -0.18158,1.110661 -0.18218,3.219466 -0.001,4.686019 l 0.32969,2.666504 -1.39578,0.268717 c -0.76758,0.147885 -2.70366,0.734642 -4.30206,1.303797 l -2.90577,1.034562 -0.88263,2.745052 c -0.4854,1.509643 -1.17668,2.847753 -1.53582,2.973978 -1.20903,0.424936 -4.56536,-0.693049 -4.88963,-1.628841 -0.40973,-1.182363 0.17368,-3.570751 1.11001,-4.542875 0.41385,-0.429662 0.66261,-0.843627 0.55294,-0.920357 -0.10967,-0.07672 -2.30106,-0.492063 -4.86999,-0.922941 -3.73488,-0.626447 -5.14165,-1.090043 -7.01972,-2.313037 -2.86139,-1.863302 -3.10658,-2.195779 -3.11558,-4.231783 -0.006,-1.361034 0.36883,-1.929508 2.44688,-3.709851 1.34975,-1.156365 4.02694,-2.767265 5.94951,-3.579627 3.76727,-1.59182 9.11205,-3.336747 10.22057,-3.336747 1.05372,0 1.77191,-1.051243 2.17144,-3.177583 l 0.36432,-1.937867 1.34152,1.223181 c 1.54988,1.413519 1.91515,1.482137 2.78381,0.523483 0.95095,-1.049483 4.00161,-2.356674 6.76806,-2.900082 2.72374,-0.535021 5.34438,-2.26311 5.34438,-3.524332 0,-1.21325 -1.48177,-1.265302 -3.34605,-0.117306 -0.90544,0.557559 -1.99861,1.01841 -2.42879,1.02371 -0.4302,0.0054 -1.71105,0.395652 -2.84634,0.867648 l -2.06396,0.858345 v -1.546159 c 0,-1.239986 -0.24067,-1.630304 -1.2144,-1.969388 -1.02503,-0.356948 -1.21387,-0.709148 -1.21387,-2.262395 z m 137.05674,48.838878 c -0.0481,0.02636 -0.0812,0.05378 -0.0801,0.08217 0.003,0.08627 0.18172,0.280737 0.45321,0.520898 a 143.43915,143.43915 0 0 0 -0.37311,-0.603064 z m 4.3956,7.777303 c -0.27998,0.59835 -0.85403,1.139562 -1.65003,1.503267 -1.89238,0.864665 -2.99024,0.8805 -4.70307,0.06925 -0.73157,-0.346504 -2.46048,-0.817991 -3.84214,-1.047998 -2.33014,-0.387907 -2.59212,-0.340139 -3.61787,0.659908 -0.90001,0.87745 -1.18142,1.838468 -1.51102,5.162992 -0.76949,7.761791 -0.44533,8.501861 3.92431,8.966371 1.56496,0.16637 3.15866,0.48429 3.54242,0.70642 h 5.2e-4 c 0.94215,0.54567 3.23816,0.52454 3.61476,-0.0336 0.16747,-0.24816 1.21861,-0.87149 2.33578,-1.38493 3.02857,-1.39192 4.21679,-2.56079 4.21679,-4.14806 0,-1.147814 0.44346,-2.114209 1.35341,-2.942975 a 143.43915,143.43915 0 0 0 -3.66386,-7.510652 z m 7.62899,17.1912 c -2.07912,0.31106 -3.30814,0.61027 -3.86126,0.93844 -0.8524,0.50573 -2.4442,0.73665 -5.34231,0.77515 -2.27059,0.0302 -4.76388,0.21736 -5.54023,0.41599 -1.10824,0.28355 -1.55065,0.18665 -2.05982,-0.45113 -0.60083,-0.75257 -0.84382,-0.61433 -3.30368,1.87534 -1.46038,1.47806 -3.26547,2.92392 -4.01112,3.21324 -1.55949,0.60507 -3.32642,3.65524 -3.13004,5.40328 0.10122,0.90097 -0.47385,1.61469 -2.78278,3.45406 -5.9437,4.73498 -9.08154,8.22945 -10.6593,11.87007 -0.53017,1.22333 -1.27673,2.76734 -1.65881,3.43132 -0.54048,0.93926 -0.59434,1.77849 -0.24236,3.78116 0.68394,3.89146 0.4238,6.72801 -0.89452,9.74618 -0.95589,2.18843 -1.09447,2.96759 -0.69712,3.92482 0.27267,0.65688 0.49558,1.93244 0.49558,2.83446 0,1.43649 0.28345,1.83319 2.28151,3.19618 1.63184,1.11319 2.83372,2.50555 4.22249,4.89221 2.27273,3.90581 7.0169,8.50455 10.0924,9.78287 2.77185,1.15237 6.44934,1.15136 8.79895,-0.002 1.08322,-0.53174 2.27433,-0.79241 2.9316,-0.64131 0.99217,0.22807 7.35197,-1.10124 8.57157,-1.79162 1.23755,-0.70051 6.07704,-1.06411 8.31371,-0.62477 1.86386,0.36613 2.682,0.83225 3.86953,2.20555 0.82648,0.95577 1.31631,1.39276 1.93631,1.56063 a 143.43915,143.43915 0 0 0 1.4826,-20.31762 143.43915,143.43915 0 0 0 -8.8129,-49.47243 z m -169.26822,52.62831 c -0.14385,0 -0.57071,0.6772 -0.94826,1.50482 -0.45584,0.99926 -1.12376,1.60523 -1.98851,1.80402 -0.71623,0.16464 -2.71093,1.63514 -4.4328,3.2675 -3.02899,2.87154 -3.1208,3.0254 -2.8205,4.74545 0.17072,0.9778 0.6719,2.1435 1.11363,2.59054 0.75065,0.75972 0.72565,0.94945 -0.38138,2.90318 -1.76645,3.11754 -7.26785,11.29897 -8.30492,12.35067 -1.15962,1.176 -1.14306,2.02073 0.0662,3.42873 1.28993,1.50199 1.22478,2.37535 -0.24288,3.25613 -1.79782,1.07894 -1.6369,3.12757 0.41858,5.32836 2.17095,2.3244 5.35108,6.86646 6.10144,8.71419 2.09491,5.15868 3.24207,6.78234 6.85436,9.7007 5.42614,4.38381 8.91497,6.68488 10.89287,7.18509 1.12397,0.28424 1.91733,0.8175 2.1885,1.47072 0.23393,0.56357 0.798,1.15553 1.25367,1.31568 0.68994,0.24249 0.76478,0.60638 0.447,2.17402 -0.96714,4.77107 -0.45529,16.21049 1.75648,39.24929 0.43311,4.51149 0.68179,5.51036 1.60352,6.45025 1.55583,1.58652 2.48557,3.07448 3.19774,5.11597 0.34139,0.97865 0.9407,2.11531 1.3317,2.52594 0.81531,0.85626 0.49475,2.23676 -0.89917,3.8716 -0.89665,1.05164 -0.8888,1.08427 1.10691,4.44831 1.7659,2.97667 3.17299,4.93026 4.65863,6.37428 a 143.43915,143.43915 0 0 0 8.53023,0.39068 c 0.0427,-0.93813 0.36362,-1.87861 0.98909,-3.00912 1.04659,-1.89167 1.18104,-2.56425 0.88211,-4.41317 -0.34354,-2.1248 -0.39301,-2.17859 -1.91306,-2.06861 -1.39656,0.10104 -1.56063,-0.0109 -1.56063,-1.0697 0,-0.65066 0.51474,-1.80244 1.14412,-2.55953 0.62938,-0.75709 1.29631,-1.81715 1.48208,-2.35541 0.36301,-1.05185 -0.58304,-3.13804 -1.86552,-4.11293 -0.41832,-0.31797 -0.76068,-0.9326 -0.76068,-1.36581 0,-0.88239 1.2688,-1.52142 1.71308,-0.86299 0.15789,0.23397 1.03885,0.42529 1.95802,0.42529 h 1.67173 v -2.62154 c 0,-3.00094 0.65209,-3.56554 2.89285,-2.50424 1.2981,0.61483 1.44865,0.58384 2.71249,-0.55914 1.59467,-1.44217 4.10828,-4.52992 4.10828,-5.04672 0,-0.20167 -0.71056,-0.69572 -1.57872,-1.09761 -2.20896,-1.0226 -3.76411,-2.41589 -3.76411,-3.37292 0,-0.84022 0.71819,-1.10253 1.17306,-0.4284 0.14245,0.2111 1.27433,0.64404 2.51509,0.96222 1.99387,0.51131 2.43975,0.48787 3.84059,-0.20309 0.87173,-0.42998 1.83462,-1.28333 2.13941,-1.89601 0.30478,-0.61268 1.39583,-2.04514 2.42465,-3.18327 1.02883,-1.13812 1.8847,-2.36977 1.9017,-2.73678 0.0725,-1.56437 1.00181,-3.93374 2.25722,-5.75521 1.53757,-2.23086 2.07738,-4.81011 1.28933,-6.15879 -1.09218,-1.86914 0.56482,-2.9383 6.74326,-4.34961 6.11434,-1.39667 6.93253,-1.94464 8.72453,-5.84615 1.53446,-3.3408 1.92953,-5.08233 2.9068,-12.81059 0.24751,-1.95732 0.6718,-4.15925 0.94258,-4.89324 0.27078,-0.734 0.72108,-2.15568 1.00097,-3.1595 0.27989,-1.00381 1.00116,-2.34088 1.60249,-2.97139 3.31317,-3.47396 4.42141,-5.30165 4.6333,-7.64191 l 0.21395,-2.36368 -3.30781,-1.69396 c -1.81906,-0.93174 -3.70164,-2.05545 -4.18373,-2.497 -0.48211,-0.44156 -1.21287,-0.80254 -1.62419,-0.80254 -0.41134,0 -1.59359,-0.39523 -2.62671,-0.87798 -1.35932,-0.63516 -2.99769,-0.90103 -5.92987,-0.96273 -4.04548,-0.0852 -4.05615,-0.0889 -6.48074,-2.03967 -2.09467,-1.68534 -2.67835,-1.93305 -4.24935,-1.80506 -1.31257,0.10693 -1.8216,-0.0256 -1.8216,-0.47335 0,-0.48703 -0.60331,-0.57038 -2.79259,-0.38603 -1.53598,0.12934 -3.32898,0.38786 -3.98426,0.57413 -1.05868,0.30092 -0.99151,0.15588 0.60048,-1.30225 2.54897,-2.33464 2.70127,-3.38755 0.9307,-6.42751 -1.87455,-3.21847 -4.26322,-5.04756 -6.85437,-5.24878 -2.31179,-0.17951 -4.88637,-1.59861 -7.57008,-4.17235 -2.10671,-2.02041 -4.04136,-3.12436 -5.47563,-3.12436 -1.32751,0 -5.69481,-2.9865 -5.69681,-3.89537 -10e-4,-0.68272 -0.59581,-0.78396 -4.9475,-0.84336 -2.72028,-0.0371 -5.23277,-0.23739 -5.58364,-0.44493 -0.35086,-0.20755 -1.78418,-0.89268 -3.18482,-1.52291 l -2.54661,-1.14618 -0.99116,2.48047 c -0.54523,1.36423 -1.086,2.73068 -1.20199,3.03651 -0.116,0.30584 -0.55474,0.55603 -0.97462,0.55603 -0.5771,0 -0.73754,-0.40702 -0.65784,-1.66811 0.0736,-1.16604 -0.28808,-2.23746 -1.20096,-3.55896 -0.71829,-1.03983 -1.42351,-1.89032 -1.56735,-1.89032 z"
         inkscape:label="Land Background" /><path
         id="path15444"
         style="opacity:1;fill:#ffffff;fill-opacity:1;stroke:none;stroke-width:0.529167;stroke-dasharray:none;stroke-opacity:1"
         d="m 288.4413,15.740124 c -0.347,0.150588 -0.65962,0.298933 -0.8754,0.433049 -2.06607,1.284185 -1.978,1.264948 -10.19059,2.167309 -5.66398,0.622335 -6.57607,0.839763 -7.64914,1.822628 -0.67015,0.613787 -1.21853,1.272582 -1.21853,1.463476 0,0.810896 2.33136,2.185787 4.12843,2.434994 1.06849,0.148175 2.80822,0.674669 3.86643,1.169954 2.41405,1.129892 3.21521,1.127088 5.67045,-0.02015 1.08377,-0.506404 2.27003,-0.815418 2.63602,-0.686779 0.36601,0.128638 1.28347,-0.332045 2.03863,-1.02371 1.091,-0.99926 2.36619,-1.455834 6.20841,-2.223637 2.54657,-0.508893 7.23229,-1.470627 10.67635,-2.188497 -5.03227,-1.393704 -10.13689,-2.511579 -15.29106,-3.348633 z m 21.39508,5.180562 c -1.0767,0.511846 -2.8871,0.705892 -5.7919,0.669727 -2.44881,-0.03049 -4.60373,0.0826 -4.78833,0.251664 -0.75118,0.688016 1.28143,1.536698 4.92011,2.054138 3.65367,0.519574 4.01674,0.678185 6.90139,3.012219 2.58905,2.094883 3.18683,2.869778 3.99665,5.180563 1.73732,4.95737 1.77985,5.853064 0.33797,7.173722 -1.08424,0.993074 -1.6385,1.151402 -3.6804,1.052132 -1.32213,-0.06427 -2.55165,0.01866 -2.73213,0.183968 -0.18049,0.165306 0.0187,1.554479 0.44286,3.08715 0.42417,1.532673 0.90578,3.362772 1.07022,4.066935 0.5275,2.258789 3.42851,5.87835 5.66787,7.071403 1.16021,0.618107 2.26301,1.143417 2.4505,1.167887 0.72409,0.09452 3.97096,-3.428805 5.79861,-6.292639 2.0935,-3.280401 2.90663,-3.804253 7.70237,-4.960937 4.69598,-1.132617 5.82859,-1.61855 5.82859,-2.502173 0,-0.49237 0.59714,-0.985638 1.5782,-1.303279 1.18992,-0.385271 4.27906,-1.01201 7.39489,-1.564763 C 335.52,31.391309 323.02414,25.211089 309.83638,20.920686 Z m -95.73989,8.32559 c -3.6754,0 -4.68841,0.317685 -7.08794,2.225704 l -1.51619,1.206128 2.5306,0.730705 c 1.39186,0.401849 3.11242,0.730704 3.82354,0.730704 1.18154,0 1.29294,0.150873 1.29294,1.753899 0,1.291435 0.27556,1.931286 1.04541,2.425174 1.08703,0.697361 5.53642,0.718283 8.3442,0.03927 0.80372,-0.194363 2.1263,-0.105856 3.17913,0.21239 1.5758,0.476331 2.28212,0.411234 5.61206,-0.516248 l 3.80959,-1.060917 0.14676,-2.761588 c 0.0846,-1.586709 -0.0538,-2.761072 -0.32556,-2.761072 -0.26008,0 -1.28527,0.318531 -2.27842,0.707967 -0.99313,0.389438 -2.68009,0.762557 -3.7486,0.829407 -1.06852,0.06685 -2.6145,0.266587 -3.43545,0.4439 -1.30526,0.281919 -1.89724,0.03841 -4.71754,-1.941483 -3.18005,-2.232423 -3.27348,-2.263945 -6.67453,-2.263945 z m 61.57867,0.762228 -4.54029,0.86868 c -4.40366,0.842272 -4.56624,0.843427 -5.43068,0.05168 -0.86445,-0.791753 -0.94867,-0.770663 -2.80448,0.698665 l -1.91306,1.514636 0.83819,1.610755 c 0.93807,1.801758 2.53441,2.180237 3.04012,0.720886 0.39258,-1.132896 1.24129,-1.119947 6.8492,0.102836 l 4.55062,0.992188 1.22112,2.793627 c 1.91282,4.376357 1.76123,4.738534 -2.8391,6.7877 -1.37318,0.611663 -2.49649,1.412738 -2.49649,1.779736 0,0.381246 1.66558,1.471007 3.88555,2.54248 2.95101,1.424311 4.44024,1.878734 6.19238,1.890324 2.42919,0.01607 3.03257,-0.65819 1.5782,-1.763716 -0.88308,-0.67126 -0.96337,-2.518409 -0.12144,-2.793628 0.33391,-0.109153 1.23356,0.0912 1.99885,0.445451 2.0468,0.947443 2.37315,0.184109 1.04438,-2.442745 -1.11343,-2.201139 -1.12749,-2.32699 -0.25683,-2.32699 0.50621,0 1.05549,0.200268 1.22059,0.444934 0.55391,0.820884 1.6786,0.455506 1.97973,-0.643372 0.44147,-1.611039 -0.56413,-3.89681 -2.45205,-5.572786 -1.41121,-1.252791 -1.58754,-1.61942 -1.1436,-2.379183 0.67402,-1.153508 -0.28678,-1.854832 -3.10834,-2.268078 -1.11813,-0.163764 -3.21634,-0.917899 -4.66276,-1.675867 z m -24.65224,4.031795 -1.81798,0.312642 c -2.38695,0.410141 -2.38094,0.405288 -3.7636,2.8205 -1.31418,2.2956 -2.7881,3.927321 -4.59661,5.087544 -0.99869,0.640694 -1.34424,0.670381 -2.1823,0.187069 -1.94051,-1.119088 -4.9721,-1.612398 -10.23658,-1.666048 -2.93146,-0.02988 -5.56193,-0.03568 -5.84513,-0.0124 -0.28319,0.02328 -1.21601,0.670509 -2.07325,1.438155 -1.4555,1.303368 -1.61644,1.34806 -2.43293,0.671277 -0.48089,-0.398605 -2.06131,-0.929968 -3.51193,-1.180807 -3.88558,-0.671882 -4.3372,-0.859984 -4.3372,-1.805574 0,-0.683348 -0.46617,-0.823837 -3.4954,-0.871265 l 20.16148,23.061838 c 0.1351,-0.952082 0.57864,-4.871802 2.30123,-6.347613 1.34975,-1.156364 4.02694,-2.767265 5.94951,-3.579627 3.76727,-1.591818 9.11205,-3.336747 10.22057,-3.336747 1.05371,0 1.77191,-1.051246 2.17144,-3.177583 l 0.36432,-1.937867 1.34152,1.223181 c 1.54988,1.413518 1.91515,1.482136 2.78381,0.523483 0.95095,-1.049482 4.00161,-2.356674 6.76806,-2.900082 2.72374,-0.53502 5.34438,-2.263111 5.34438,-3.524332 0,-1.213249 -1.48177,-1.265301 -3.34605,-0.117306 -0.90544,0.557559 -1.99862,1.01841 -2.42879,1.02371 -0.4302,0.0054 -1.71105,0.395652 -2.84634,0.867648 l -2.06396,0.858345 v -1.546159 c 0,-1.239984 -0.24067,-1.630305 -1.2144,-1.969388 -1.02502,-0.356948 -1.21387,-0.709149 -1.21387,-2.262395 z m 12.38477,17.954459 -2.67167,2.403471 c -2.03299,1.828857 -2.91773,2.343933 -3.70262,2.15594 -0.90924,-0.217776 -1.07073,-0.0077 -1.36219,1.772502 -0.18158,1.11066 -0.18221,3.219467 -0.001,4.686019 l 0.32969,2.666504 -1.39578,0.268717 c -0.76758,0.147885 -2.70366,0.734642 -4.30206,1.303797 l -2.90577,1.034562 -0.88263,2.745052 c -0.4854,1.509641 -1.17668,2.847753 -1.53582,2.973978 -0.71134,0.250014 -7.28,-3.534981 -6.47068,-2.602446 l 16.40169,18.898785 c 0.26538,0.305779 3.32265,-1.505148 3.6418,-1.60783 1.06851,-0.343782 3.14447,-1.051207 4.61367,-1.571997 2.51198,-0.890428 2.60574,-0.895435 1.572,-0.0863 -0.60461,0.473251 -1.2814,0.926187 -1.5043,1.006657 -0.2229,0.08046 -0.55074,0.996741 -0.72812,2.036568 -0.42977,2.51949 0.20708,2.462622 3.8287,-0.342098 1.58565,-1.227978 3.14172,-2.141594 3.45819,-2.030367 0.85418,0.300218 5.59402,-1.188965 5.86838,-1.843815 0.13031,-0.310969 0.11987,-0.846296 -0.0238,-1.189074 -0.22155,-0.528779 -0.57913,-0.518309 -2.35903,0.0677 -1.47148,0.48445 -2.78671,0.596052 -4.4049,0.37362 -2.87617,-0.395352 -2.98189,-1.175905 -0.37259,-2.757454 1.06412,-0.64499 1.80309,-1.368042 1.64176,-1.607137 -0.18282,-0.270926 -2.1188,-0.31524 -5.13819,-0.117305 -4.5639,0.299188 -4.8348,0.269289 -4.67051,-0.512114 0.4043,-1.922798 9.04734,-3.720703 17.88469,-3.720703 3.67022,0 4.37309,-0.13566 6.08387,-1.172538 2.77754,-1.683635 5.57692,-4.227772 5.57692,-5.068424 0,-0.984738 -2.48867,-3.0651 -2.77812,-2.322339 -0.38398,0.985334 -1.06457,0.597083 -2.04794,-1.168404 -0.52831,-0.948482 -1.28777,-1.839661 -1.68775,-1.980241 -0.60025,-0.210969 -0.67644,-0.919883 -0.4346,-4.058667 0.35009,-4.543708 0.31234,-4.561596 -4.70824,-2.245858 -1.85657,0.856328 -3.70102,1.557011 -4.09898,1.557011 -0.97968,0 -1.72909,-1.399986 -1.72909,-3.229777 0,-2.107272 -1.50814,-3.193565 -5.58519,-4.023527 z m -36.51301,10.311057 12.72454,9.976774 c -0.12764,-1.263078 0.77174,-3.61091 1.57897,-4.449005 0.41385,-0.429661 0.66261,-0.843627 0.55294,-0.920357 -0.10967,-0.07672 -2.30106,-0.492064 -4.86999,-0.922941 -1.55077,-0.260109 -9.03804,-3.414496 -9.98646,-3.684471 z"
         sodipodi:nodetypes="csssssssssscccssssssssssssssssccscccssssscccsssssscccsccscccssssssssssssssccccsssssssssccssscccsssscccsssccscccccccssccsssssssssssssssscssssssssccccssscss" /><g
         aria-label="G"
         transform="matrix(0.57462128,0,0,0.57462128,-272.68954,-67.309825)"
         id="text14787"
         style="font-weight:bold;font-size:400px;-inkscape-font-specification:'sans-serif, Bold';white-space:pre;shape-inside:url(#rect14789);display:inline;opacity:0.5;stroke-width:2.942;filter:url(#filter14791)"
         inkscape:label="G Shadow"><path
           d="M 934.27695,379.76492 H 1047.477 v 148 q -22.4,7.6 -46.8,12 -24.00005,4.4 -54.80005,4.4 -64,0 -98.4,-37.6 -34.4,-37.6 -34.4,-109.6 0,-44.8 17.2,-77.6 17.6,-32.8 50.8,-50.8 33.2,-18 81.2,-18 22.8,0 44.80005,4.8 22,4.8 40,12.8 l -20,48.4 q -13.2,-6.8 -30.00005,-11.2 -16.8,-4.4 -35.2,-4.4 -26.4,0 -46,12 -19.2,12 -30,34 -10.4,21.6 -10.4,51.2 0,28 7.6,49.6 7.6,21.6 24,34 16.4,12 42.8,12 12.8,0 21.6,-1.2 9.2,-1.2 16.8,-2.8 v -59.6 h -54 z"
           id="path15585" /></g><g
         aria-label="G"
         transform="matrix(0.57462128,0,0,0.57462128,-270.57286,-71.013994)"
         id="text6620"
         style="font-weight:bold;font-size:400px;-inkscape-font-specification:'sans-serif, Bold';white-space:pre;shape-inside:url(#rect6622);display:inline;opacity:1;fill:#ff9331;stroke:#aa0000;stroke-width:2.942"
         inkscape:label="G"><path
           d="M 934.27695,379.76492 H 1047.477 v 148 q -22.4,7.6 -46.8,12 -24.00005,4.4 -54.80005,4.4 -64,0 -98.4,-37.6 -34.4,-37.6 -34.4,-109.6 0,-44.8 17.2,-77.6 17.6,-32.8 50.8,-50.8 33.2,-18 81.2,-18 22.8,0 44.80005,4.8 22,4.8 40,12.8 l -20,48.4 q -13.2,-6.8 -30.00005,-11.2 -16.8,-4.4 -35.2,-4.4 -26.4,0 -46,12 -19.2,12 -30,34 -10.4,21.6 -10.4,51.2 0,28 7.6,49.6 7.6,21.6 24,34 16.4,12 42.8,12 12.8,0 21.6,-1.2 9.2,-1.2 16.8,-2.8 v -59.6 h -54 z"
           id="path15582" /></g></g></g></svg>
